<?xml version="1.0" standalone="no"?>
<!DOCTYPE svg PUBLIC "-//W3C//DTD SVG 20010904//EN"
 "http://www.w3.org/TR/2001/REC-SVG-20010904/DTD/svg10.dtd">
<svg version="1.0" xmlns="http://www.w3.org/2000/svg"
 width="512.000000pt" height="512.000000pt" viewBox="0 0 512.000000 512.000000"
 preserveAspectRatio="xMidYMid meet">

<g transform="translate(0.000000,512.000000) scale(0.100000,-0.100000)"
fill="#ffffff" stroke="none">
<path d="M1890 4474 c-525 -65 -981 -342 -1271 -773 -316 -469 -386 -1080
-183 -1605 215 -556 684 -960 1265 -1090 309 -68 617 -54 920 43 l97 31 -38
42 c-102 111 -144 283 -105 433 31 116 63 158 293 388 241 240 282 268 422
290 134 20 288 -25 383 -112 l44 -41 22 57 c84 229 118 520 90 771 -84 771
-652 1390 -1415 1543 -84 16 -153 22 -299 24 -104 2 -206 1 -225 -1z m278
-661 c58 -43 67 -66 70 -183 l4 -109 188 -3 c172 -3 191 -5 216 -24 53 -39 69
-71 69 -134 0 -63 -16 -95 -69 -134 -27 -20 -41 -21 -457 -24 l-429 -3 0 -159
0 -159 363 -3 c353 -3 363 -4 407 -26 72 -35 114 -75 151 -144 l34 -63 0 -245
0 -245 -27 -51 c-40 -76 -70 -107 -140 -144 -60 -32 -69 -34 -185 -38 l-121
-4 -4 -108 c-3 -117 -12 -140 -72 -184 -39 -29 -133 -29 -172 0 -60 44 -69 67
-72 184 l-4 109 -188 3 c-172 3 -191 5 -216 24 -53 39 -69 71 -69 134 0 63 16
95 69 134 27 20 41 21 457 24 l429 3 0 159 0 159 -362 3 -363 3 -63 34 c-69
37 -109 79 -144 151 -22 43 -23 56 -23 290 0 241 0 246 25 295 32 64 92 124
155 154 42 21 70 25 173 29 l122 4 0 94 c0 127 23 177 95 210 40 19 119 12
153 -13z"/>
<path d="M3295 1906 c-16 -8 -114 -99 -217 -202 -157 -159 -187 -195 -193
-226 -11 -61 3 -108 44 -149 66 -66 153 -65 226 3 l44 40 3 -315 c3 -301 4
-317 24 -343 39 -53 71 -69 134 -69 63 0 95 16 134 69 20 26 21 42 24 343 l3
315 44 -40 c73 -68 160 -69 226 -3 41 41 55 88 44 149 -6 31 -36 67 -193 226
-103 103 -201 194 -219 202 -40 17 -89 17 -128 0z"/>
<path d="M4255 1906 c-37 -17 -70 -52 -84 -89 -7 -18 -11 -140 -11 -329 l0
-301 -44 41 c-74 68 -161 69 -227 3 -41 -41 -55 -88 -44 -148 5 -32 36 -68
203 -235 281 -281 263 -281 544 0 167 167 198 203 203 235 11 60 -3 107 -44
148 -66 66 -153 65 -226 -3 l-44 -40 -3 315 c-3 301 -4 317 -24 343 -11 15
-32 37 -46 47 -34 25 -113 32 -153 13z"/>
</g>
</svg>
