<?xml version="1.0" encoding="iso-8859-1"?>
<!-- Uploaded to: SVG Repo, www.svgrepo.com, Generator: SVG Repo Mixer Tools -->
<svg fill="#ffffff" height="800px" width="800px" version="1.1" id="Layer_1" xmlns="http://www.w3.org/2000/svg" xmlns:xlink="http://www.w3.org/1999/xlink" 
	 viewBox="0 0 512 512" xml:space="preserve">
<g>
	<g>
		<path d="M475.479,239.304H461.99c-4.674-8.934-10.282-17.51-16.771-25.641v-91.228c0-9.217-7.479-16.696-16.696-16.696
			c-32.109,0-60.641,18.163-74.576,45.859c-144.528-46.783-287.164,42.87-287.164,154.489h-7.826
			c-14.098,0-25.565-11.468-25.565-25.565V256c0-9.217-7.479-16.696-16.696-16.696S0,246.783,0,256v24.521
			c0,32.511,26.446,58.957,58.957,58.957h11.925c8.503,35.059,30.199,66.976,62.684,91.142v59.119
			c0,9.217,7.479,16.696,16.696,16.696h66.783c9.217,0,16.696-7.479,16.696-16.696V470.5c12.511,1.608,26.359,2.543,38.957,2.543
			s26.446-0.935,38.957-2.543v19.239c0,9.217,7.479,16.696,16.696,16.696h66.783c9.217,0,16.696-7.479,16.696-16.696V430.62
			c21.554-16.043,38.663-35.75,50.163-57.75h13.489c20.141,0,36.521-16.381,36.521-36.521v-60.522
			C512,255.685,495.619,239.304,475.479,239.304z M272.696,239.304c-28.554,0-59.913,8.706-78.043,21.663
			c-7.553,5.379-17.97,3.573-23.294-3.88c-5.358-7.5-3.62-17.924,3.88-23.294c23.707-16.935,61.956-27.881,97.457-27.881
			c9.217,0,16.696,7.479,16.696,16.696S281.913,239.304,272.696,239.304z M395.13,306.087c-9.22,0-16.696-7.475-16.696-16.696
			s7.475-16.696,16.696-16.696s16.696,7.475,16.696,16.696S404.351,306.087,395.13,306.087z"/>
	</g>
</g>
<g>
	<g>
		<path d="M133.565,5.565c-36.826,0-66.783,29.956-66.783,66.783s29.956,66.783,66.783,66.783c36.826,0,66.783-29.956,66.783-66.783
			S170.391,5.565,133.565,5.565z"/>
	</g>
</g>
</svg>