<?xml version="1.0" standalone="no"?>
<!DOCTYPE svg PUBLIC "-//W3C//DTD SVG 20010904//EN"
 "http://www.w3.org/TR/2001/REC-SVG-20010904/DTD/svg10.dtd">
<svg version="1.0" xmlns="http://www.w3.org/2000/svg"
 width="512.000000pt" height="512.000000pt" viewBox="0 0 512.000000 512.000000"
 preserveAspectRatio="xMidYMid meet">

<g transform="translate(0.000000,512.000000) scale(0.100000,-0.100000)"
fill="#ffffff" stroke="none">
<path d="M635 5106 c-45 -20 -83 -70 -90 -119 -3 -23 -5 -496 -3 -1052 3
-1125 -2 -1049 71 -1094 33 -20 46 -21 439 -21 l405 0 6 58 c28 264 259 473
526 475 148 2 282 -54 386 -159 88 -89 155 -233 155 -336 l0 -38 971 0 c969 0
972 0 1006 21 73 45 68 -36 68 1131 0 1041 0 1047 -21 1074 -11 15 -33 37 -48
48 l-27 21 -1907 2 c-1570 2 -1912 0 -1937 -11z m1010 -471 c80 -20 176 -69
215 -110 63 -65 45 -167 -37 -201 -44 -19 -80 -13 -130 20 -86 57 -183 71
-240 36 -40 -24 -45 -62 -10 -84 12 -8 82 -37 154 -66 203 -80 284 -148 319
-267 44 -151 -38 -312 -196 -387 -116 -54 -290 -47 -420 19 -65 33 -147 100
-165 135 -45 88 13 180 114 180 31 0 50 -9 88 -39 72 -57 110 -73 180 -79 71
-5 114 8 143 46 46 58 11 93 -163 162 -222 89 -251 108 -298 200 -31 60 -37
160 -14 229 31 94 136 185 242 210 60 14 154 12 218 -4z m683 -5 c59 -36 62
-54 62 -414 l0 -325 31 -36 c43 -49 78 -65 141 -65 61 0 119 28 152 73 20 27
21 43 26 373 l5 344 31 31 c63 62 167 43 200 -37 13 -30 15 -92 12 -383 l-3
-346 -32 -66 c-41 -83 -121 -159 -210 -202 -64 -30 -74 -32 -183 -32 -110 0
-118 1 -183 33 -86 42 -169 123 -205 199 l-27 58 -3 366 -3 367 27 32 c46 54
105 65 162 30z m1350 5 c167 -50 264 -247 204 -417 l-20 -56 24 -23 c14 -13
39 -53 57 -88 29 -59 32 -74 32 -156 0 -77 -4 -98 -27 -147 -34 -73 -103 -142
-176 -176 -56 -27 -59 -27 -280 -27 l-224 0 -28 32 c-18 20 -31 48 -35 75 -3
24 -5 239 -3 478 4 557 -15 519 259 520 121 0 179 -4 217 -15z"/>
<path d="M3452 4328 l3 -73 76 0 c91 0 119 17 119 72 0 57 -27 73 -120 73
l-81 0 3 -72z"/>
<path d="M3450 3895 l0 -105 106 0 106 0 34 34 c38 38 44 77 20 125 -21 40
-56 51 -166 51 l-100 0 0 -105z"/>
<path d="M1922 3041 c-60 -21 -112 -66 -139 -120 -17 -34 -18 -98 -23 -963 -5
-916 -5 -927 -26 -954 -37 -51 -71 -69 -127 -69 -39 0 -61 6 -86 24 -59 42
-61 57 -61 405 0 213 -4 323 -11 340 -24 53 -118 59 -234 15 -105 -39 -202
-137 -246 -246 -24 -57 -24 -64 -24 -388 1 -382 6 -412 95 -590 113 -227 299
-381 556 -462 l89 -28 970 0 c899 0 975 1 1035 18 335 91 571 324 662 652 22
78 22 95 26 707 2 450 0 639 -8 670 -8 28 -27 57 -55 84 -98 95 -243 75 -312
-43 -27 -46 -28 -56 -33 -203 -6 -177 -12 -195 -86 -230 -62 -31 -117 -21
-165 30 -20 21 -39 52 -43 70 -3 18 -6 110 -6 205 0 161 -2 175 -23 216 -35
66 -93 102 -171 107 -74 5 -125 -16 -174 -72 -45 -51 -52 -91 -52 -287 0 -166
-1 -178 -22 -209 -38 -55 -73 -75 -129 -74 -53 1 -87 19 -123 68 -20 26 -21
45 -26 296 l-5 268 -30 44 c-94 133 -284 119 -363 -26 -14 -26 -18 -74 -22
-296 -6 -300 -6 -302 -86 -340 -62 -31 -117 -21 -165 30 -20 21 -39 52 -43 70
-3 18 -6 275 -6 572 0 594 1 579 -63 646 -68 72 -157 94 -245 63z"/>
</g>
</svg>
