<svg width="50" height="50" viewBox="0 0 41 41" fill="none" xmlns="http://www.w3.org/2000/svg">
<rect x="0.497566" y="0.188538" width="39.9667" height="39.9667" rx="8.32639" fill="#282C35"/>
<path d="M20.4313 12.0203L18.4246 16.6914H16.418C16.0849 16.6914 15.7602 16.7164 15.4438 16.783L16.2764 14.7846L16.3097 14.7097L16.3597 14.5765C16.3846 14.5182 16.4013 14.4682 16.4263 14.4266C17.3921 12.1868 18.4746 11.4874 20.4313 12.0203Z" fill="#1FCB4F"/>
<path d="M26.0848 16.9162L26.0682 16.9079C25.5686 16.7664 25.0607 16.6914 24.5444 16.6914H19.3321L21.2056 12.3367L21.2305 12.2784C21.3471 12.3201 21.472 12.3784 21.5969 12.42L23.437 13.1943C24.4612 13.619 25.1772 14.0603 25.6185 14.5932C25.6935 14.6931 25.7601 14.7847 25.8267 14.8929C25.9016 15.0095 25.9599 15.1261 25.9932 15.251C26.0265 15.3259 26.0515 15.3925 26.0682 15.4674C26.1931 15.8921 26.2014 16.375 26.0848 16.9162Z" fill="#1FCB4F"/>
<path d="M20.9141 24.8845H21.1222C21.372 24.8845 21.5802 24.6597 21.5802 24.385C21.5802 24.0352 21.4802 23.9853 21.2638 23.902L20.9141 23.7771V24.8845Z" fill="#1FCB4F"/>
<path d="M25.7186 18.1069C25.3439 17.9986 24.9525 17.9403 24.5445 17.9403H16.418C15.8518 17.9403 15.3189 18.0486 14.8193 18.2651C13.3705 18.8895 12.3547 20.33 12.3547 22.0036V23.6273C12.3547 23.8271 12.3714 24.0186 12.3963 24.2184C12.5795 26.8662 13.995 28.2817 16.6428 28.4566C16.8343 28.4815 17.0258 28.4982 17.234 28.4982H23.7286C26.8093 28.4982 28.433 27.0328 28.5912 24.1185C28.5995 23.9603 28.6078 23.7938 28.6078 23.6273V22.0036C28.6078 20.1635 27.3838 18.6148 25.7186 18.1069ZM21.547 23.086C21.9301 23.2193 22.4463 23.5024 22.4463 24.385C22.4463 25.1427 21.8551 25.7505 21.1224 25.7505H20.9142V25.9337C20.9142 26.1751 20.7227 26.3666 20.4813 26.3666C20.2398 26.3666 20.0483 26.1751 20.0483 25.9337V25.7505H19.9734C19.174 25.7505 18.5162 25.0761 18.5162 24.2434C18.5162 24.0019 18.7077 23.8104 18.9492 23.8104C19.1907 23.8104 19.3822 24.0019 19.3822 24.2434C19.3822 24.5931 19.6486 24.8845 19.9734 24.8845H20.0483V23.4774L19.4155 23.2526C19.0325 23.1194 18.5162 22.8363 18.5162 21.9537C18.5162 21.196 19.1074 20.5881 19.8401 20.5881H20.0483V20.4049C20.0483 20.1635 20.2398 19.972 20.4813 19.972C20.7227 19.972 20.9142 20.1635 20.9142 20.4049V20.5881H20.9892C21.7885 20.5881 22.4463 21.2626 22.4463 22.0952C22.4463 22.3367 22.2548 22.5282 22.0133 22.5282C21.7719 22.5282 21.5803 22.3367 21.5803 22.0952C21.5803 21.7455 21.3139 21.4541 20.9892 21.4541H20.9142V22.8612L21.547 23.086Z" fill="#1FCB4F"/>
<path d="M19.3821 21.9537C19.3821 22.3035 19.482 22.3534 19.6985 22.4367L20.0482 22.5616V21.4542H19.8401C19.582 21.4542 19.3821 21.679 19.3821 21.9537Z" fill="#1FCB4F"/>
</svg>
