<svg width="41" height="41" viewBox="0 0 41 41" fill="none" xmlns="http://www.w3.org/2000/svg">
<rect x="0.297287" y="0.188538" width="39.9667" height="39.9667" rx="8.32639" fill="#282C35"/>
<path d="M28.6066 16.4666C28.6066 17.0162 28.157 17.4658 27.6074 17.4658H12.953C12.4034 17.4658 11.9538 17.0162 11.9538 16.4666V16.4583C11.9538 14.5516 13.4942 13.0112 15.4009 13.0112H25.1511C27.0579 13.0112 28.6066 14.5599 28.6066 16.4666Z" fill="#1FCB4F"/>
<path d="M11.9538 19.7139V23.8854C11.9538 25.7922 13.4942 27.3325 15.4009 27.3325H25.1511C27.0579 27.3325 28.6066 25.7838 28.6066 23.8771V19.7139C28.6066 19.1643 28.157 18.7147 27.6074 18.7147H12.953C12.4034 18.7147 11.9538 19.1643 11.9538 19.7139ZM16.9496 24.5432H15.2844C14.943 24.5432 14.6599 24.2601 14.6599 23.9187C14.6599 23.5773 14.943 23.2942 15.2844 23.2942H16.9496C17.291 23.2942 17.5741 23.5773 17.5741 23.9187C17.5741 24.2601 17.291 24.5432 16.9496 24.5432ZM22.3618 24.5432H19.0312C18.6899 24.5432 18.4068 24.2601 18.4068 23.9187C18.4068 23.5773 18.6899 23.2942 19.0312 23.2942H22.3618C22.7032 23.2942 22.9863 23.5773 22.9863 23.9187C22.9863 24.2601 22.7032 24.5432 22.3618 24.5432Z" fill="#1FCB4F"/>
</svg>
