<svg width="50" height="50" viewBox="0 0 41 41" fill="none" xmlns="http://www.w3.org/2000/svg">
<rect x="0.697357" y="0.188538" width="39.9667" height="39.9667" rx="8.32639" fill="#282C35"/>
<path d="M29.007 20.6881V22.4033C29.007 22.8696 28.624 23.2526 28.1494 23.2526H26.5424C25.6432 23.2526 24.8189 22.5948 24.7439 21.6956C24.694 21.171 24.8938 20.6797 25.2435 20.3384C25.5516 20.022 25.9762 19.8388 26.4425 19.8388H28.1494C28.624 19.8388 29.007 20.2218 29.007 20.6881Z" fill="#1FCB4F"/>
<path d="M23.4948 21.8038C23.4199 20.9296 23.7363 20.072 24.3691 19.4475C24.902 18.9063 25.643 18.5899 26.4423 18.5899H26.9169C27.1501 18.5899 27.3416 18.3984 27.3083 18.1652C27.0835 16.5499 25.6846 15.3009 24.011 15.3009H15.6847C13.8445 15.3009 12.3541 16.7914 12.3541 18.6315V24.46C12.3541 26.3001 13.8445 27.7905 15.6847 27.7905H24.011C25.693 27.7905 27.0835 26.5416 27.3083 24.9262C27.3416 24.6931 27.1501 24.5016 26.9169 24.5016H26.5423C24.9602 24.5016 23.628 23.3192 23.4948 21.8038ZM21.5131 20.0886H16.5173C16.1759 20.0886 15.8928 19.8138 15.8928 19.4641C15.8928 19.1144 16.1759 18.8396 16.5173 18.8396H21.5131C21.8545 18.8396 22.1376 19.1227 22.1376 19.4641C22.1376 19.8055 21.8545 20.0886 21.5131 20.0886Z" fill="#1FCB4F"/>
<path d="M22.5207 13.4941C22.7372 13.7189 22.5457 14.0519 22.2293 14.0519H15.7098C14.8022 14.0519 13.9529 14.3184 13.2451 14.7763C12.9204 14.9845 12.4791 14.7597 12.6373 14.4017C13.1036 13.3109 14.1943 12.5532 15.4516 12.5532H20.1311C21.0969 12.5532 21.9545 12.8946 22.5207 13.4941Z" fill="#1FCB4F"/>
</svg>
